# xmcd CD database file
#
# Track frame offsets:
#	150
#	15988
#	30193
#	47512
#	61483
#	76439
#	89889
#	102296
#	114473
#	127453
#	146270
#	156104
#	168186
#	180654
#	190956
#	205867
#	222150
#	235473
#	249217
#	262668
#	277599
#	291076
#	308167
#	324537
#
# Disc length: 4470 seconds
#
# Revision: 1
# Processed by: cddbd v1.5.2PL0 Copyright (c) Steve Scherf et al.
# Submitted via: CDex 1.70beta2
#
DISCID=46117418
DTITLE=Django Reinhardt - Manoir de ses rêves 1947 [CD14)
DYEAR=2010
DGENRE=Jazz
TTITLE0=Blues en mineur
TTITLE1=It Had To Be You
TTITLE2=Manoir de mes rêves
TTITLE3=Dinette
TTITLE4=Mélodie au crépuscule
TTITLE5=Stop
TTITLE6=Place de Brouckère
TTITLE7=Symphonie
TTITLE8=Improvisation sur une danse norvégienne
TTITLE9=St. Louis Blues
TTITLE10=What Is This Thing Called Love?
TTITLE11=Ol' Man River
TTITLE12=Si tu savais
TTITLE13=Eveline
TTITLE14=Diminushing
TTITLE15=Ol' Man River
TTITLE16=R-Vingt-Six
TTITLE17=How High The Moon
TTITLE18=Swing Guitars
TTITLE19=I Love You
TTITLE20=Tiger Rag
TTITLE21=Tears
TTITLE22=Dinah
TTITLE23=Them There Eyes
EXTD=YEAR: 2010
EXTT0=
EXTT1=
EXTT2=
EXTT3=
EXTT4=
EXTT5=
EXTT6=
EXTT7=
EXTT8=
EXTT9=
EXTT10=
EXTT11=
EXTT12=
EXTT13=
EXTT14=
EXTT15=
EXTT16=
EXTT17=
EXTT18=
EXTT19=
EXTT20=
EXTT21=
EXTT22=
EXTT23=
PLAYORDER=
